# xmcd CD database file
#
# Track frame offsets:
#	150
#	19427
#	44973
#	65712
#	89049
#	111648
#	133738
#	166124
#	186073
#	198844
#	220047
#	236291
#	252257
#	268341
#	288773
#	305407
#	323051
#
# Disc length: 4556 seconds
#
# Revision: 0
# Processed by: cddbd v1.5.2PL0 Copyright (c) Steve Scherf et al.
# Submitted via: CDex 1.70beta2
#
DISCID=0711ca11
DTITLE=Chet Baker - Seven Classic Albums - Vol.2 - CD1
DYEAR=1956
DGENRE=Jazz
TTITLE0=Love Nest
TTITLE1=Fan Tan
TTITLE2=Summer Scetch
TTITLE3=An Afternoon At Home
TTITLE4=Say When
TTITLE5=Lush Life
TTITLE6=Amblin
TTITLE7=Hugo Hurhwhey
TTITLE8=Jimmy's Theme
TTITLE9=The Search
TTITLE10=Lost Love
TTITLE11=People
TTITLE12=The Movie Star
TTITLE13=Fairmont, Indiana
TTITLE14=Rebel At Work
TTITLE15=Success And Then West
TTITLE16=Let Me Be Loved
EXTD=YEAR: 1956
EXTT0=
EXTT1=
EXTT2=
EXTT3=
EXTT4=
EXTT5=
EXTT6=
EXTT7=
EXTT8=
EXTT9=
EXTT10=
EXTT11=
EXTT12=
EXTT13=
EXTT14=
EXTT15=
EXTT16=
PLAYORDER=
